<svg xmlns="http://www.w3.org/2000/svg" xmlns:xlink="http://www.w3.org/1999/xlink" width="500" zoomAndPan="magnify" viewBox="0 0 375 374.999991" height="500" preserveAspectRatio="xMidYMid meet" version="1.0"><defs><g/><clipPath id="483536fd4a"><path d="M 6 15 L 360 15 L 360 275 L 6 275 Z M 6 15 " clip-rule="nonzero"/></clipPath><clipPath id="2b84d5b2be"><path d="M 6.257812 26.117188 L 351.761719 15.691406 L 359.261719 264.273438 L 13.757812 274.699219 Z M 6.257812 26.117188 " clip-rule="nonzero"/></clipPath><clipPath id="131b13b681"><path d="M 6 15 L 360 15 L 360 275 L 6 275 Z M 6 15 " clip-rule="nonzero"/></clipPath><clipPath id="6e85a88adf"><path d="M 6.257812 26.117188 L 351.847656 15.6875 L 359.359375 264.574219 L 13.765625 275.003906 Z M 6.257812 26.117188 " clip-rule="nonzero"/></clipPath><clipPath id="88c2e11852"><path d="M 6.257812 26.117188 L 351.757812 15.695312 L 359.257812 264.273438 L 13.757812 274.695312 Z M 6.257812 26.117188 " clip-rule="nonzero"/></clipPath><clipPath id="ea411d6747"><path d="M 60 169 L 182 169 L 182 254 L 60 254 Z M 60 169 " clip-rule="nonzero"/></clipPath><clipPath id="a9e3ad5570"><path d="M 165.007812 169.890625 L 181.828125 213.292969 L 76.929688 253.945312 L 60.109375 210.542969 Z M 165.007812 169.890625 " clip-rule="nonzero"/></clipPath><clipPath id="d2ee72de58"><path d="M 10 276 L 367 276 L 367 374 L 10 374 Z M 10 276 " clip-rule="nonzero"/></clipPath><clipPath id="902ebed3f4"><path d="M 10.628906 290.195312 L 366.742188 276.46875 L 370.226562 366.910156 L 14.117188 380.636719 Z M 10.628906 290.195312 " clip-rule="nonzero"/></clipPath><clipPath id="a054aaf14a"><path d="M 192.082031 373.777344 L 366.558594 276.476562 L 10.628906 290.195312 Z M 192.082031 373.777344 " clip-rule="nonzero"/></clipPath><clipPath id="4d04c1b888"><path d="M 10 276 L 367 276 L 367 374 L 10 374 Z M 10 276 " clip-rule="nonzero"/></clipPath><clipPath id="fcc5d5d15d"><path d="M 10.628906 290.195312 L 366.617188 276.472656 L 370.109375 367.15625 L 14.125 380.878906 Z M 10.628906 290.195312 " clip-rule="nonzero"/></clipPath><clipPath id="ce3cc4a76d"><path d="M 10.636719 290.195312 L 367.191406 276.449219 L 370.710938 367.785156 L 14.15625 381.527344 Z M 10.636719 290.195312 " clip-rule="nonzero"/></clipPath><clipPath id="7c43bf9f69"><path d="M 192.078125 373.773438 L 366.550781 276.476562 L 10.636719 290.195312 Z M 192.078125 373.773438 " clip-rule="nonzero"/></clipPath><clipPath id="4279fcdc20"><path d="M 109 143 L 147 143 L 147 177 L 109 177 Z M 109 143 " clip-rule="nonzero"/></clipPath><clipPath id="f3540e9099"><path d="M 119.019531 189.875 L 100.28125 162.410156 L 128.171875 143.378906 L 146.910156 170.839844 Z M 119.019531 189.875 " clip-rule="nonzero"/></clipPath><clipPath id="6db80fe8f1"><path d="M 109.648438 176.140625 L 128.074219 143.445312 L 146.8125 170.90625 Z M 109.648438 176.140625 " clip-rule="nonzero"/></clipPath><clipPath id="62474640de"><path d="M 7 158 L 368 158 L 368 294 L 7 294 Z M 7 158 " clip-rule="nonzero"/></clipPath><clipPath id="26a5aa804c"><path d="M 7.953125 170.972656 L 362.707031 158.378906 L 367.046875 280.621094 L 12.292969 293.214844 Z M 7.953125 170.972656 " clip-rule="nonzero"/></clipPath><clipPath id="209ba4d4f4"><path d="M 7 158 L 367 158 L 367 294 L 7 294 Z M 7 158 " clip-rule="nonzero"/></clipPath><clipPath id="745a5264f0"><path d="M 7.953125 170.972656 L 362.476562 158.386719 L 366.816406 280.558594 L 12.289062 293.144531 Z M 7.953125 170.972656 " clip-rule="nonzero"/></clipPath><clipPath id="985e78d7b5"><path d="M 7.953125 170.972656 L 362.699219 158.378906 L 367.039062 280.621094 L 12.292969 293.214844 Z M 7.953125 170.972656 " clip-rule="nonzero"/></clipPath><clipPath id="e45b41a5ce"><path d="M 65 193 L 85 193 L 85 231 L 65 231 Z M 65 193 " clip-rule="nonzero"/></clipPath><clipPath id="37b0405fb6"><path d="M 7.953125 170.972656 L 362.476562 158.386719 L 366.816406 280.558594 L 12.289062 293.144531 Z M 7.953125 170.972656 " clip-rule="nonzero"/></clipPath><clipPath id="b0570c7674"><path d="M 85 192 L 105 192 L 105 230 L 85 230 Z M 85 192 " clip-rule="nonzero"/></clipPath><clipPath id="8457d36ba3"><path d="M 7.953125 170.972656 L 362.476562 158.386719 L 366.816406 280.558594 L 12.289062 293.144531 Z M 7.953125 170.972656 " clip-rule="nonzero"/></clipPath><clipPath id="769828f6a4"><path d="M 104 191 L 124 191 L 124 230 L 104 230 Z M 104 191 " clip-rule="nonzero"/></clipPath><clipPath id="572c98038e"><path d="M 7.953125 170.972656 L 362.476562 158.386719 L 366.816406 280.558594 L 12.289062 293.144531 Z M 7.953125 170.972656 " clip-rule="nonzero"/></clipPath><clipPath id="a51bbd72cc"><path d="M 124 191 L 144 191 L 144 229 L 124 229 Z M 124 191 " clip-rule="nonzero"/></clipPath><clipPath id="d244281416"><path d="M 7.953125 170.972656 L 362.476562 158.386719 L 366.816406 280.558594 L 12.289062 293.144531 Z M 7.953125 170.972656 " clip-rule="nonzero"/></clipPath><clipPath id="a2a83fd2c3"><path d="M 145 227 L 146 227 L 146 228 L 145 228 Z M 145 227 " clip-rule="nonzero"/></clipPath><clipPath id="91b1ef39f0"><path d="M 7.953125 170.972656 L 362.476562 158.386719 L 366.816406 280.558594 L 12.289062 293.144531 Z M 7.953125 170.972656 " clip-rule="nonzero"/></clipPath><clipPath id="c78c6e9338"><path d="M 155 190 L 175 190 L 175 228 L 155 228 Z M 155 190 " clip-rule="nonzero"/></clipPath><clipPath id="2872f563e5"><path d="M 7.953125 170.972656 L 362.476562 158.386719 L 366.816406 280.558594 L 12.289062 293.144531 Z M 7.953125 170.972656 " clip-rule="nonzero"/></clipPath><clipPath id="47d5786634"><path d="M 175 189 L 192 189 L 192 227 L 175 227 Z M 175 189 " clip-rule="nonzero"/></clipPath><clipPath id="145166ded7"><path d="M 7.953125 170.972656 L 362.476562 158.386719 L 366.816406 280.558594 L 12.289062 293.144531 Z M 7.953125 170.972656 " clip-rule="nonzero"/></clipPath><clipPath id="9bd70b2b89"><path d="M 192 188 L 212 188 L 212 227 L 192 227 Z M 192 188 " clip-rule="nonzero"/></clipPath><clipPath id="cbd0bf2441"><path d="M 7.953125 170.972656 L 362.476562 158.386719 L 366.816406 280.558594 L 12.289062 293.144531 Z M 7.953125 170.972656 " clip-rule="nonzero"/></clipPath><clipPath id="a67afb32f1"><path d="M 212 188 L 232 188 L 232 226 L 212 226 Z M 212 188 " clip-rule="nonzero"/></clipPath><clipPath id="487363b79c"><path d="M 7.953125 170.972656 L 362.476562 158.386719 L 366.816406 280.558594 L 12.289062 293.144531 Z M 7.953125 170.972656 " clip-rule="nonzero"/></clipPath><clipPath id="08ccc02afc"><path d="M 231 187 L 251 187 L 251 225 L 231 225 Z M 231 187 " clip-rule="nonzero"/></clipPath><clipPath id="48481bc3cb"><path d="M 7.953125 170.972656 L 362.476562 158.386719 L 366.816406 280.558594 L 12.289062 293.144531 Z M 7.953125 170.972656 " clip-rule="nonzero"/></clipPath><clipPath id="03443dce50"><path d="M 252 186 L 272 186 L 272 224 L 252 224 Z M 252 186 " clip-rule="nonzero"/></clipPath><clipPath id="3b5aa2327a"><path d="M 7.953125 170.972656 L 362.476562 158.386719 L 366.816406 280.558594 L 12.289062 293.144531 Z M 7.953125 170.972656 " clip-rule="nonzero"/></clipPath><clipPath id="ab8edceb51"><path d="M 272 185 L 292 185 L 292 224 L 272 224 Z M 272 185 " clip-rule="nonzero"/></clipPath><clipPath id="1c345bed93"><path d="M 7.953125 170.972656 L 362.476562 158.386719 L 366.816406 280.558594 L 12.289062 293.144531 Z M 7.953125 170.972656 " clip-rule="nonzero"/></clipPath><clipPath id="2807b4e009"><path d="M 292 185 L 309 185 L 309 223 L 292 223 Z M 292 185 " clip-rule="nonzero"/></clipPath><clipPath id="f959231506"><path d="M 7.953125 170.972656 L 362.476562 158.386719 L 366.816406 280.558594 L 12.289062 293.144531 Z M 7.953125 170.972656 " clip-rule="nonzero"/></clipPath><clipPath id="8e0a7d99f4"><path d="M 156 243 L 166 243 L 166 264 L 156 264 Z M 156 243 " clip-rule="nonzero"/></clipPath><clipPath id="7593d3eb4a"><path d="M 7.953125 170.972656 L 362.476562 158.386719 L 366.816406 280.558594 L 12.289062 293.144531 Z M 7.953125 170.972656 " clip-rule="nonzero"/></clipPath><clipPath id="8f1dbb82b2"><path d="M 165 243 L 177 243 L 177 264 L 165 264 Z M 165 243 " clip-rule="nonzero"/></clipPath><clipPath id="f9a587037d"><path d="M 7.953125 170.972656 L 362.476562 158.386719 L 366.816406 280.558594 L 12.289062 293.144531 Z M 7.953125 170.972656 " clip-rule="nonzero"/></clipPath><clipPath id="8306bd09dc"><path d="M 176 242 L 193 242 L 193 264 L 176 264 Z M 176 242 " clip-rule="nonzero"/></clipPath><clipPath id="ec405e3532"><path d="M 7.953125 170.972656 L 362.476562 158.386719 L 366.816406 280.558594 L 12.289062 293.144531 Z M 7.953125 170.972656 " clip-rule="nonzero"/></clipPath><clipPath id="e748a819d3"><path d="M 193 242 L 198 242 L 198 263 L 193 263 Z M 193 242 " clip-rule="nonzero"/></clipPath><clipPath id="f50b1be7a2"><path d="M 7.953125 170.972656 L 362.476562 158.386719 L 366.816406 280.558594 L 12.289062 293.144531 Z M 7.953125 170.972656 " clip-rule="nonzero"/></clipPath><clipPath id="3bdb7894a9"><path d="M 198 242 L 209 242 L 209 263 L 198 263 Z M 198 242 " clip-rule="nonzero"/></clipPath><clipPath id="916307ebde"><path d="M 7.953125 170.972656 L 362.476562 158.386719 L 366.816406 280.558594 L 12.289062 293.144531 Z M 7.953125 170.972656 " clip-rule="nonzero"/></clipPath><clipPath id="cf2cc2a827"><path d="M 209 241 L 221 241 L 221 263 L 209 263 Z M 209 241 " clip-rule="nonzero"/></clipPath><clipPath id="d65179147e"><path d="M 7.953125 170.972656 L 362.476562 158.386719 L 366.816406 280.558594 L 12.289062 293.144531 Z M 7.953125 170.972656 " clip-rule="nonzero"/></clipPath><clipPath id="e79271496a"><path d="M 142.296875 207.753906 L 160.160156 207.753906 L 160.160156 218.171875 L 142.296875 218.171875 Z M 142.296875 207.753906 " clip-rule="nonzero"/></clipPath><clipPath id="3e056a632b"><path d="M 142.328125 212.964844 L 160.160156 218.171875 L 160.160156 207.753906 Z M 142.328125 212.964844 " clip-rule="nonzero"/></clipPath><clipPath id="8411e46fc0"><path d="M 151.277344 214 L 160.164062 214 L 160.164062 222.332031 L 151.277344 222.332031 Z M 151.277344 214 " clip-rule="nonzero"/></clipPath><clipPath id="1146439c46"><path d="M 151.285156 218.167969 L 160.164062 222.332031 L 160.164062 214 Z M 151.285156 218.167969 " clip-rule="nonzero"/></clipPath><clipPath id="76ced158f8"><path d="M 148.984375 203.582031 L 157.871094 203.582031 L 157.871094 211.917969 L 148.984375 211.917969 Z M 148.984375 203.582031 " clip-rule="nonzero"/></clipPath><clipPath id="633e5c5eff"><path d="M 148.996094 207.75 L 157.871094 211.917969 L 157.871094 203.582031 Z M 148.996094 207.75 " clip-rule="nonzero"/></clipPath><clipPath id="5f5798a137"><path d="M 60.09375 217.167969 L 68.980469 217.167969 L 68.980469 225.5 L 60.09375 225.5 Z M 60.09375 217.167969 " clip-rule="nonzero"/></clipPath><clipPath id="d529189407"><path d="M 60.105469 221.335938 L 68.980469 225.5 L 68.980469 217.167969 Z M 60.105469 221.335938 " clip-rule="nonzero"/></clipPath><clipPath id="f61a498ccb"><path d="M 53.511719 211.089844 L 71.496094 211.089844 L 71.496094 221.078125 L 53.511719 221.078125 Z M 53.511719 211.089844 " clip-rule="nonzero"/></clipPath><clipPath id="2978dc9c2c"><path d="M 53.550781 216.082031 L 71.496094 221.078125 L 71.496094 211.089844 Z M 53.550781 216.082031 " clip-rule="nonzero"/></clipPath><clipPath id="fe97035011"><path d="M 60.09375 207.75 L 68.980469 207.75 L 68.980469 216.082031 L 60.09375 216.082031 Z M 60.09375 207.75 " clip-rule="nonzero"/></clipPath><clipPath id="7aa38d579e"><path d="M 60.105469 211.917969 L 68.980469 216.082031 L 68.980469 207.75 Z M 60.105469 211.917969 " clip-rule="nonzero"/></clipPath><clipPath id="d3eca1c864"><path d="M 299.730469 106.851562 L 348.359375 106.851562 L 348.359375 157 L 299.730469 157 Z M 299.730469 106.851562 " clip-rule="nonzero"/></clipPath><clipPath id="4db6f7fab8"><path d="M 324.042969 106.851562 C 310.613281 106.851562 299.730469 118.0625 299.730469 131.890625 C 299.730469 145.71875 310.613281 156.929688 324.042969 156.929688 C 337.472656 156.929688 348.359375 145.71875 348.359375 131.890625 C 348.359375 118.0625 337.472656 106.851562 324.042969 106.851562 Z M 324.042969 106.851562 " clip-rule="nonzero"/></clipPath><clipPath id="35a230c8ea"><path d="M 299.730469 106.859375 L 348.351562 106.859375 L 348.351562 157 L 299.730469 157 Z M 299.730469 106.859375 " clip-rule="nonzero"/></clipPath><clipPath id="e3773fa5d2"><path d="M 324.039062 106.859375 C 310.613281 106.859375 299.730469 118.066406 299.730469 131.890625 C 299.730469 145.714844 310.613281 156.921875 324.039062 156.921875 C 337.464844 156.921875 348.351562 145.714844 348.351562 131.890625 C 348.351562 118.066406 337.464844 106.859375 324.039062 106.859375 Z M 324.039062 106.859375 " clip-rule="nonzero"/></clipPath><clipPath id="eeeb4cbf60"><path d="M 309.886719 117.988281 L 338.230469 117.988281 L 338.230469 145.792969 L 309.886719 145.792969 Z M 309.886719 117.988281 " clip-rule="nonzero"/></clipPath><clipPath id="94a31fc00b"><path d="M 324.042969 117.988281 C 316.226562 117.988281 309.886719 124.214844 309.886719 131.890625 C 309.886719 139.566406 316.226562 145.792969 324.042969 145.792969 C 331.863281 145.792969 338.203125 139.566406 338.203125 131.890625 C 338.203125 124.214844 331.863281 117.988281 324.042969 117.988281 Z M 324.042969 117.988281 " clip-rule="nonzero"/></clipPath><clipPath id="e5936f81e2"><path d="M 309.886719 117.988281 L 338.386719 117.988281 L 338.386719 145.738281 L 309.886719 145.738281 Z M 309.886719 117.988281 " clip-rule="nonzero"/></clipPath><clipPath id="823ec727d2"><path d="M 324.042969 117.988281 C 316.222656 117.988281 309.886719 124.210938 309.886719 131.886719 C 309.886719 139.5625 316.222656 145.785156 324.042969 145.785156 C 331.859375 145.785156 338.199219 139.5625 338.199219 131.886719 C 338.199219 124.210938 331.859375 117.988281 324.042969 117.988281 Z M 324.042969 117.988281 " clip-rule="nonzero"/></clipPath><clipPath id="b064407a8b"><path d="M 106 140 L 142 140 L 142 177 L 106 177 Z M 106 140 " clip-rule="nonzero"/></clipPath><clipPath id="db77bcea97"><path d="M 153.433594 164.8125 L 129.128906 187.496094 L 106.089844 162.8125 L 130.394531 140.125 Z M 153.433594 164.8125 " clip-rule="nonzero"/></clipPath><clipPath id="37382d2b92"><path d="M 141.28125 176.152344 L 106.171875 162.898438 L 130.472656 140.214844 Z M 141.28125 176.152344 " clip-rule="nonzero"/></clipPath><clipPath id="1dcf8fc3b9"><path d="M 142 5 L 198 5 L 198 65 L 142 65 Z M 142 5 " clip-rule="nonzero"/></clipPath><clipPath id="f864aca249"><path d="M 205.855469 18.707031 L 189.65625 77.738281 L 142.28125 64.738281 L 158.484375 5.707031 Z M 205.855469 18.707031 " clip-rule="nonzero"/></clipPath><clipPath id="c6f94a7b92"><path d="M 197.777344 48.148438 L 142.324219 64.585938 L 158.484375 5.707031 Z M 197.777344 48.148438 " clip-rule="nonzero"/></clipPath><clipPath id="350c7e1b58"><path d="M 142 12 L 179 12 L 179 51 L 142 51 Z M 142 12 " clip-rule="nonzero"/></clipPath><clipPath id="f8965a2746"><path d="M 183.828125 21.296875 L 173.113281 59.6875 L 142.304688 51.085938 L 153.023438 12.695312 Z M 183.828125 21.296875 " clip-rule="nonzero"/></clipPath><clipPath id="b27ca190ae"><path d="M 178.484375 40.441406 L 142.332031 50.984375 L 153.023438 12.695312 Z M 178.484375 40.441406 " clip-rule="nonzero"/></clipPath></defs><g clip-path="url(#483536fd4a)"><g clip-path="url(#2b84d5b2be)"><path fill="#ffb400" d="M 6.257812 26.117188 L 351.941406 15.6875 L 359.441406 264.269531 L 13.757812 274.699219 Z M 6.257812 26.117188 " fill-opacity="1" fill-rule="nonzero"/></g></g><g clip-path="url(#131b13b681)"><g clip-path="url(#6e85a88adf)"><g clip-path="url(#88c2e11852)"><path stroke-linecap="butt" transform="matrix(0.749659, -0.0226184, 0.0226184, 0.749659, 6.2569, 26.118106)" fill="none" stroke-linejoin="miter" d="M 0.00125291 -0.00118684 L 460.87232 0.00187065 L 460.877527 331.590404 L 0.00125398 331.587189 Z M 0.00125291 -0.00118684 " stroke="#000000" stroke-width="12" stroke-opacity="1" stroke-miterlimit="4"/></g></g></g><g clip-path="url(#ea411d6747)"><g clip-path="url(#a9e3ad5570)"><path fill="#5a5a5a" d="M 165.007812 169.890625 L 181.828125 213.292969 L 76.882812 253.964844 L 60.0625 210.5625 Z M 165.007812 169.890625 " fill-opacity="1" fill-rule="nonzero"/></g></g><g clip-path="url(#d2ee72de58)"><g clip-path="url(#902ebed3f4)"><g clip-path="url(#a054aaf14a)"><path fill="#ffb400" d="M 10.628906 290.195312 L 366.386719 276.480469 L 369.875 366.921875 L 14.117188 380.636719 Z M 10.628906 290.195312 " fill-opacity="1" fill-rule="nonzero"/></g></g></g><g clip-path="url(#4d04c1b888)"><g clip-path="url(#fcc5d5d15d)"><g clip-path="url(#ce3cc4a76d)"><g clip-path="url(#7c43bf9f69)"><path stroke-linecap="butt" transform="matrix(0.749443, -0.0288887, 0.0288887, 0.749443, 10.636857, 290.194582)" fill="none" stroke-linejoin="miter" d="M 237.449774 120.674199 L 474.904323 0.00180369 L -0.000221515 0.000966526 Z M 237.449774 120.674199 " stroke="#000000" stroke-width="12" stroke-opacity="1" stroke-miterlimit="4"/></g></g></g></g><path stroke-linecap="butt" transform="matrix(-0.578699, 0.477082, -0.477082, -0.578699, 300.849095, 270.314718)" fill="none" stroke-linejoin="miter" d="M 2.020541 21.231221 C 72.742254 4.919386 111.398605 4.920828 117.989596 21.235545 " stroke="#5a5a5a" stroke-width="18" stroke-opacity="1" stroke-miterlimit="4"/><path stroke-linecap="butt" transform="matrix(-0.50195, 0.557267, -0.557267, -0.50195, 371.520273, 152.994981)" fill="none" stroke-linejoin="miter" d="M 8.82197 51.854481 C 20.306647 -5.286673 52.615945 -5.284705 105.746379 51.856515 " stroke="#5a5a5a" stroke-width="18" stroke-opacity="1" stroke-miterlimit="4"/><g clip-path="url(#4279fcdc20)"><g clip-path="url(#f3540e9099)"><g clip-path="url(#6db80fe8f1)"><path fill="#000000" d="M 119.019531 189.875 L 100.28125 162.410156 L 128.0625 143.453125 L 146.804688 170.914062 Z M 119.019531 189.875 " fill-opacity="1" fill-rule="nonzero"/></g></g></g><g clip-path="url(#62474640de)"><g clip-path="url(#26a5aa804c)"><path fill="#000000" d="M 7.953125 170.972656 L 362.75 158.375 L 367.089844 280.621094 L 12.292969 293.214844 Z M 7.953125 170.972656 " fill-opacity="1" fill-rule="nonzero"/></g></g><g clip-path="url(#209ba4d4f4)"><g clip-path="url(#745a5264f0)"><g clip-path="url(#985e78d7b5)"><path stroke-linecap="butt" transform="matrix(0.749528, -0.0266073, 0.0266073, 0.749528, 7.951865, 170.971659)" fill="none" stroke-linejoin="miter" d="M 0.00163154 0.00138819 L 473.294396 0.000472965 L 473.294918 163.092742 L 0.00215377 163.093658 Z M 0.00163154 0.00138819 " stroke="#ffb400" stroke-width="12" stroke-opacity="1" stroke-miterlimit="4"/></g></g></g><g clip-path="url(#e45b41a5ce)"><g clip-path="url(#37b0405fb6)"><g fill="#ffffff" fill-opacity="1"><g transform="translate(65.298835, 230.274173)"><g><path d="M 0.3125 -36.125 L 11.390625 -36.515625 C 13.148438 -36.578125 14.53125 -36.222656 15.53125 -35.453125 C 16.53125 -34.691406 17.21875 -33.597656 17.59375 -32.171875 C 17.976562 -30.742188 18.210938 -28.910156 18.296875 -26.671875 C 18.367188 -24.628906 18.160156 -23.019531 17.671875 -21.84375 C 17.179688 -20.675781 16.285156 -19.847656 14.984375 -19.359375 C 16.078125 -19.171875 16.882812 -18.648438 17.40625 -17.796875 C 17.9375 -16.953125 18.226562 -15.789062 18.28125 -14.3125 L 18.671875 -0.65625 L 11.640625 -0.40625 L 11.140625 -14.5 C 11.109375 -15.507812 10.890625 -16.148438 10.484375 -16.421875 C 10.078125 -16.691406 9.359375 -16.804688 8.328125 -16.765625 L 8.90625 -0.3125 L 1.59375 -0.0625 Z M 9.859375 -23.078125 C 10.867188 -23.117188 11.335938 -24.234375 11.265625 -26.421875 C 11.234375 -27.367188 11.164062 -28.078125 11.0625 -28.546875 C 10.957031 -29.023438 10.785156 -29.351562 10.546875 -29.53125 C 10.316406 -29.707031 9.992188 -29.785156 9.578125 -29.765625 L 7.90625 -29.703125 L 8.140625 -23.015625 Z M 9.859375 -23.078125 "/></g></g></g></g></g><g clip-path="url(#b0570c7674)"><g clip-path="url(#8457d36ba3)"><g fill="#ffffff" fill-opacity="1"><g transform="translate(85.314599, 229.563638)"><g><path d="M 9.96875 -0.015625 C 7 0.0976562 4.757812 -0.660156 3.25 -2.296875 C 1.75 -3.929688 0.941406 -6.398438 0.828125 -9.703125 L -0.109375 -36.109375 L 6.90625 -36.359375 L 7.828125 -10.25 C 7.867188 -9.101562 8.015625 -8.207031 8.265625 -7.5625 C 8.515625 -6.925781 9.003906 -6.625 9.734375 -6.65625 C 10.460938 -6.675781 10.925781 -7.003906 11.125 -7.640625 C 11.320312 -8.285156 11.398438 -9.195312 11.359375 -10.375 L 10.4375 -36.484375 L 17.4375 -36.734375 L 18.375 -10.328125 C 18.488281 -7.023438 17.851562 -4.503906 16.46875 -2.765625 C 15.09375 -1.035156 12.925781 -0.117188 9.96875 -0.015625 Z M 9.96875 -0.015625 "/></g></g></g></g></g><g clip-path="url(#769828f6a4)"><g clip-path="url(#572c98038e)"><g fill="#ffffff" fill-opacity="1"><g transform="translate(105.204478, 228.857571)"><g><path d="M 10.171875 -0.015625 C 6.898438 0.0976562 4.503906 -0.628906 2.984375 -2.203125 C 1.472656 -3.773438 0.648438 -6.367188 0.515625 -9.984375 L 0.390625 -13.5 L 7.5 -13.75 L 7.671875 -9.265625 C 7.734375 -7.472656 8.335938 -6.597656 9.484375 -6.640625 C 10.128906 -6.660156 10.566406 -6.863281 10.796875 -7.25 C 11.035156 -7.644531 11.140625 -8.289062 11.109375 -9.1875 C 11.066406 -10.363281 10.890625 -11.328125 10.578125 -12.078125 C 10.273438 -12.835938 9.894531 -13.46875 9.4375 -13.96875 C 8.988281 -14.46875 8.191406 -15.242188 7.046875 -16.296875 L 3.828125 -19.296875 C 1.328125 -21.566406 0.0234375 -24.128906 -0.078125 -26.984375 C -0.191406 -30.054688 0.425781 -32.421875 1.78125 -34.078125 C 3.144531 -35.742188 5.1875 -36.625 7.90625 -36.71875 C 11.132812 -36.832031 13.492188 -36.054688 14.984375 -34.390625 C 16.484375 -32.722656 17.300781 -30.054688 17.4375 -26.390625 L 10.09375 -26.125 L 9.96875 -28.59375 C 9.945312 -29.070312 9.796875 -29.445312 9.515625 -29.71875 C 9.234375 -29.988281 8.859375 -30.113281 8.390625 -30.09375 C 7.828125 -30.082031 7.410156 -29.914062 7.140625 -29.59375 C 6.878906 -29.28125 6.753906 -28.859375 6.765625 -28.328125 C 6.804688 -27.148438 7.523438 -25.953125 8.921875 -24.734375 L 13.25 -20.859375 C 14.257812 -19.929688 15.101562 -19.050781 15.78125 -18.21875 C 16.457031 -17.382812 17.007812 -16.394531 17.4375 -15.25 C 17.875 -14.101562 18.117188 -12.738281 18.171875 -11.15625 C 18.296875 -7.601562 17.738281 -4.882812 16.5 -3 C 15.269531 -1.113281 13.160156 -0.117188 10.171875 -0.015625 Z M 10.171875 -0.015625 "/></g></g></g></g></g><g clip-path="url(#a51bbd72cc)"><g clip-path="url(#d244281416)"><g fill="#ffffff" fill-opacity="1"><g transform="translate(124.548851, 228.170868)"><g><path d="M 1.59375 -0.0625 L 0.3125 -36.125 L 7.5 -36.375 L 7.953125 -23.484375 L 11.359375 -23.609375 L 10.90625 -36.5 L 18.0625 -36.75 L 19.34375 -0.6875 L 12.1875 -0.4375 L 11.609375 -16.796875 L 8.203125 -16.671875 L 8.78125 -0.3125 Z M 1.59375 -0.0625 "/></g></g></g></g></g><g clip-path="url(#a2a83fd2c3)"><g clip-path="url(#91b1ef39f0)"><g fill="#ffffff" fill-opacity="1"><g transform="translate(145.487767, 227.427562)"><g/></g></g></g></g><g clip-path="url(#c78c6e9338)"><g clip-path="url(#2872f563e5)"><g fill="#ffffff" fill-opacity="1"><g transform="translate(155.306815, 227.078997)"><g><path d="M 0.3125 -36.125 L 11.390625 -36.515625 C 13.148438 -36.578125 14.53125 -36.222656 15.53125 -35.453125 C 16.53125 -34.691406 17.21875 -33.597656 17.59375 -32.171875 C 17.976562 -30.742188 18.210938 -28.910156 18.296875 -26.671875 C 18.367188 -24.628906 18.160156 -23.019531 17.671875 -21.84375 C 17.179688 -20.675781 16.285156 -19.847656 14.984375 -19.359375 C 16.078125 -19.171875 16.882812 -18.648438 17.40625 -17.796875 C 17.9375 -16.953125 18.226562 -15.789062 18.28125 -14.3125 L 18.671875 -0.65625 L 11.640625 -0.40625 L 11.140625 -14.5 C 11.109375 -15.507812 10.890625 -16.148438 10.484375 -16.421875 C 10.078125 -16.691406 9.359375 -16.804688 8.328125 -16.765625 L 8.90625 -0.3125 L 1.59375 -0.0625 Z M 9.859375 -23.078125 C 10.867188 -23.117188 11.335938 -24.234375 11.265625 -26.421875 C 11.234375 -27.367188 11.164062 -28.078125 11.0625 -28.546875 C 10.957031 -29.023438 10.785156 -29.351562 10.546875 -29.53125 C 10.316406 -29.707031 9.992188 -29.785156 9.578125 -29.765625 L 7.90625 -29.703125 L 8.140625 -23.015625 Z M 9.859375 -23.078125 "/></g></g></g></g></g><g clip-path="url(#47d5786634)"><g clip-path="url(#145166ded7)"><g fill="#ffffff" fill-opacity="1"><g transform="translate(175.322579, 226.368462)"><g><path d="M 1.59375 -0.0625 L 0.3125 -36.125 L 14.75 -36.625 L 15 -29.65625 L 7.921875 -29.40625 L 8.171875 -22.390625 L 14.953125 -22.640625 L 15.1875 -15.828125 L 8.40625 -15.578125 L 8.703125 -7.328125 L 16.234375 -7.59375 L 16.484375 -0.578125 Z M 1.59375 -0.0625 "/></g></g></g></g></g><g clip-path="url(#9bd70b2b89)"><g clip-path="url(#cbd0bf2441)"><g fill="#ffffff" fill-opacity="1"><g transform="translate(192.610829, 225.754749)"><g><path d="M 10.171875 -0.015625 C 6.898438 0.0976562 4.503906 -0.628906 2.984375 -2.203125 C 1.472656 -3.773438 0.648438 -6.367188 0.515625 -9.984375 L 0.390625 -13.5 L 7.5 -13.75 L 7.671875 -9.265625 C 7.734375 -7.472656 8.335938 -6.597656 9.484375 -6.640625 C 10.128906 -6.660156 10.566406 -6.863281 10.796875 -7.25 C 11.035156 -7.644531 11.140625 -8.289062 11.109375 -9.1875 C 11.066406 -10.363281 10.890625 -11.328125 10.578125 -12.078125 C 10.273438 -12.835938 9.894531 -13.46875 9.4375 -13.96875 C 8.988281 -14.46875 8.191406 -15.242188 7.046875 -16.296875 L 3.828125 -19.296875 C 1.328125 -21.566406 0.0234375 -24.128906 -0.078125 -26.984375 C -0.191406 -30.054688 0.425781 -32.421875 1.78125 -34.078125 C 3.144531 -35.742188 5.1875 -36.625 7.90625 -36.71875 C 11.132812 -36.832031 13.492188 -36.054688 14.984375 -34.390625 C 16.484375 -32.722656 17.300781 -30.054688 17.4375 -26.390625 L 10.09375 -26.125 L 9.96875 -28.59375 C 9.945312 -29.070312 9.796875 -29.445312 9.515625 -29.71875 C 9.234375 -29.988281 8.859375 -30.113281 8.390625 -30.09375 C 7.828125 -30.082031 7.410156 -29.914062 7.140625 -29.59375 C 6.878906 -29.28125 6.753906 -28.859375 6.765625 -28.328125 C 6.804688 -27.148438 7.523438 -25.953125 8.921875 -24.734375 L 13.25 -20.859375 C 14.257812 -19.929688 15.101562 -19.050781 15.78125 -18.21875 C 16.457031 -17.382812 17.007812 -16.394531 17.4375 -15.25 C 17.875 -14.101562 18.117188 -12.738281 18.171875 -11.15625 C 18.296875 -7.601562 17.738281 -4.882812 16.5 -3 C 15.269531 -1.113281 13.160156 -0.117188 10.171875 -0.015625 Z M 10.171875 -0.015625 "/></g></g></g></g></g><g clip-path="url(#a67afb32f1)"><g clip-path="url(#487363b79c)"><g fill="#ffffff" fill-opacity="1"><g transform="translate(211.955202, 225.068047)"><g><path d="M 0.3125 -36.125 L 9.84375 -36.453125 C 12.71875 -36.554688 14.804688 -35.695312 16.109375 -33.875 C 17.410156 -32.050781 18.125 -29.347656 18.25 -25.765625 C 18.375 -22.179688 17.921875 -19.460938 16.890625 -17.609375 C 15.867188 -15.753906 13.953125 -14.773438 11.140625 -14.671875 L 8.1875 -14.578125 L 8.6875 -0.3125 L 1.59375 -0.0625 Z M 8.375 -21.109375 C 9.25 -21.140625 9.882812 -21.316406 10.28125 -21.640625 C 10.675781 -21.972656 10.925781 -22.441406 11.03125 -23.046875 C 11.132812 -23.660156 11.164062 -24.523438 11.125 -25.640625 C 11.070312 -27.160156 10.863281 -28.25 10.5 -28.90625 C 10.132812 -29.570312 9.445312 -29.890625 8.4375 -29.859375 L 7.640625 -29.828125 L 7.953125 -21.09375 Z M 8.375 -21.109375 "/></g></g></g></g></g><g clip-path="url(#08ccc02afc)"><g clip-path="url(#48481bc3cb)"><g fill="#ffffff" fill-opacity="1"><g transform="translate(231.761157, 224.364959)"><g><path d="M 10.21875 -0.015625 C 7.3125 0.0859375 5.066406 -0.722656 3.484375 -2.453125 C 1.910156 -4.179688 1.066406 -6.65625 0.953125 -9.875 L 0.34375 -27.03125 C 0.226562 -30.144531 0.898438 -32.515625 2.359375 -34.140625 C 3.816406 -35.773438 6 -36.644531 8.90625 -36.75 C 11.8125 -36.851562 14.046875 -36.140625 15.609375 -34.609375 C 17.179688 -33.085938 18.023438 -30.769531 18.140625 -27.65625 L 18.75 -10.5 C 18.863281 -7.25 18.195312 -4.710938 16.75 -2.890625 C 15.300781 -1.078125 13.125 -0.117188 10.21875 -0.015625 Z M 9.984375 -6.65625 C 10.628906 -6.675781 11.050781 -6.972656 11.25 -7.546875 C 11.457031 -8.117188 11.539062 -8.90625 11.5 -9.90625 L 10.875 -27.53125 C 10.851562 -28.320312 10.726562 -28.957031 10.5 -29.4375 C 10.269531 -29.914062 9.832031 -30.144531 9.1875 -30.125 C 7.976562 -30.082031 7.410156 -29.148438 7.484375 -27.328125 L 8.109375 -9.75 C 8.140625 -8.707031 8.289062 -7.925781 8.5625 -7.40625 C 8.84375 -6.882812 9.316406 -6.632812 9.984375 -6.65625 Z M 9.984375 -6.65625 "/></g></g></g></g></g><g clip-path="url(#03443dce50)"><g clip-path="url(#3b5aa2327a)"><g fill="#ffffff" fill-opacity="1"><g transform="translate(252.154568, 223.641018)"><g><path d="M 1.59375 -0.0625 L 0.3125 -36.125 L 7.75 -36.375 L 11.65625 -19.234375 L 11.046875 -36.5 L 18.015625 -36.75 L 19.296875 -0.6875 L 12.25 -0.4375 L 8.015625 -18.359375 L 8.65625 -0.3125 Z M 1.59375 -0.0625 "/></g></g></g></g></g><g clip-path="url(#ab8edceb51)"><g clip-path="url(#1c345bed93)"><g fill="#ffffff" fill-opacity="1"><g transform="translate(273.051533, 222.8992)"><g><path d="M 10.171875 -0.015625 C 6.898438 0.0976562 4.503906 -0.628906 2.984375 -2.203125 C 1.472656 -3.773438 0.648438 -6.367188 0.515625 -9.984375 L 0.390625 -13.5 L 7.5 -13.75 L 7.671875 -9.265625 C 7.734375 -7.472656 8.335938 -6.597656 9.484375 -6.640625 C 10.128906 -6.660156 10.566406 -6.863281 10.796875 -7.25 C 11.035156 -7.644531 11.140625 -8.289062 11.109375 -9.1875 C 11.066406 -10.363281 10.890625 -11.328125 10.578125 -12.078125 C 10.273438 -12.835938 9.894531 -13.46875 9.4375 -13.96875 C 8.988281 -14.46875 8.191406 -15.242188 7.046875 -16.296875 L 3.828125 -19.296875 C 1.328125 -21.566406 0.0234375 -24.128906 -0.078125 -26.984375 C -0.191406 -30.054688 0.425781 -32.421875 1.78125 -34.078125 C 3.144531 -35.742188 5.1875 -36.625 7.90625 -36.71875 C 11.132812 -36.832031 13.492188 -36.054688 14.984375 -34.390625 C 16.484375 -32.722656 17.300781 -30.054688 17.4375 -26.390625 L 10.09375 -26.125 L 9.96875 -28.59375 C 9.945312 -29.070312 9.796875 -29.445312 9.515625 -29.71875 C 9.234375 -29.988281 8.859375 -30.113281 8.390625 -30.09375 C 7.828125 -30.082031 7.410156 -29.914062 7.140625 -29.59375 C 6.878906 -29.28125 6.753906 -28.859375 6.765625 -28.328125 C 6.804688 -27.148438 7.523438 -25.953125 8.921875 -24.734375 L 13.25 -20.859375 C 14.257812 -19.929688 15.101562 -19.050781 15.78125 -18.21875 C 16.457031 -17.382812 17.007812 -16.394531 17.4375 -15.25 C 17.875 -14.101562 18.117188 -12.738281 18.171875 -11.15625 C 18.296875 -7.601562 17.738281 -4.882812 16.5 -3 C 15.269531 -1.113281 13.160156 -0.117188 10.171875 -0.015625 Z M 10.171875 -0.015625 "/></g></g></g></g></g><g clip-path="url(#2807b4e009)"><g clip-path="url(#f959231506)"><g fill="#ffffff" fill-opacity="1"><g transform="translate(292.395906, 222.212498)"><g><path d="M 1.59375 -0.0625 L 0.3125 -36.125 L 14.75 -36.625 L 15 -29.65625 L 7.921875 -29.40625 L 8.171875 -22.390625 L 14.953125 -22.640625 L 15.1875 -15.828125 L 8.40625 -15.578125 L 8.703125 -7.328125 L 16.234375 -7.59375 L 16.484375 -0.578125 Z M 1.59375 -0.0625 "/></g></g></g></g></g><g clip-path="url(#8e0a7d99f4)"><g clip-path="url(#7593d3eb4a)"><g fill="#ffffff" fill-opacity="1"><g transform="translate(156.581068, 263.806908)"><g><path d="M 2.578125 -0.09375 L 2.015625 -16.046875 L -0.328125 -15.96875 L -0.46875 -19.75 L 8.171875 -20.046875 L 8.3125 -16.265625 L 5.96875 -16.1875 L 6.53125 -0.234375 Z M 2.578125 -0.09375 "/></g></g></g></g></g><g clip-path="url(#8f1dbb82b2)"><g clip-path="url(#f9a587037d)"><g fill="#ffffff" fill-opacity="1"><g transform="translate(165.680266, 263.483897)"><g><path d="M 5.59375 -0.015625 C 4 0.046875 2.769531 -0.394531 1.90625 -1.34375 C 1.050781 -2.289062 0.59375 -3.644531 0.53125 -5.40625 L 0.1875 -14.796875 C 0.132812 -16.503906 0.503906 -17.800781 1.296875 -18.6875 C 2.097656 -19.582031 3.296875 -20.0625 4.890625 -20.125 C 6.484375 -20.175781 7.707031 -19.785156 8.5625 -18.953125 C 9.425781 -18.117188 9.882812 -16.847656 9.9375 -15.140625 L 10.28125 -5.75 C 10.34375 -3.976562 9.972656 -2.59375 9.171875 -1.59375 C 8.378906 -0.59375 7.1875 -0.0664062 5.59375 -0.015625 Z M 5.46875 -3.65625 C 5.820312 -3.664062 6.050781 -3.828125 6.15625 -4.140625 C 6.269531 -4.453125 6.316406 -4.882812 6.296875 -5.4375 L 5.953125 -15.078125 C 5.941406 -15.503906 5.875 -15.847656 5.75 -16.109375 C 5.625 -16.378906 5.382812 -16.507812 5.03125 -16.5 C 4.375 -16.46875 4.0625 -15.953125 4.09375 -14.953125 L 4.4375 -5.328125 C 4.457031 -4.765625 4.539062 -4.335938 4.6875 -4.046875 C 4.832031 -3.765625 5.09375 -3.632812 5.46875 -3.65625 Z M 5.46875 -3.65625 "/></g></g></g></g></g><g clip-path="url(#8306bd09dc)"><g clip-path="url(#ec405e3532)"><g fill="#ffffff" fill-opacity="1"><g transform="translate(176.847471, 263.087475)"><g><path d="M 2.421875 -0.078125 L -0.40625 -19.75 L 3.453125 -19.875 L 5 -7.484375 L 5.671875 -19.953125 L 9.34375 -20.09375 L 10.84375 -7.6875 L 11.46875 -20.171875 L 15.359375 -20.296875 L 13.90625 -0.5 L 9.171875 -0.328125 L 7.84375 -9.8125 L 7.25 -0.25 Z M 2.421875 -0.078125 "/></g></g></g></g></g><g clip-path="url(#e748a819d3)"><g clip-path="url(#f50b1be7a2)"><g fill="#ffffff" fill-opacity="1"><g transform="translate(193.207652, 262.506708)"><g><path d="M 0.6875 -0.03125 L -0.015625 -19.765625 L 3.8125 -19.890625 L 4.515625 -0.15625 Z M 0.6875 -0.03125 "/></g></g></g></g></g><g clip-path="url(#3bdb7894a9)"><g clip-path="url(#916307ebde)"><g fill="#ffffff" fill-opacity="1"><g transform="translate(198.423604, 262.321548)"><g><path d="M 0.875 -0.03125 L 0.171875 -19.765625 L 4.234375 -19.90625 L 6.40625 -10.53125 L 6.0625 -19.96875 L 9.875 -20.109375 L 10.578125 -0.375 L 6.71875 -0.234375 L 4.390625 -10.0625 L 4.734375 -0.171875 Z M 0.875 -0.03125 "/></g></g></g></g></g><g clip-path="url(#cf2cc2a827)"><g clip-path="url(#d65179147e)"><g fill="#ffffff" fill-opacity="1"><g transform="translate(209.866542, 261.915337)"><g><path d="M 4.9375 0.015625 C 3.519531 0.0664062 2.445312 -0.394531 1.71875 -1.375 C 0.988281 -2.363281 0.585938 -3.878906 0.515625 -5.921875 L 0.203125 -14.40625 C 0.140625 -16.238281 0.5 -17.632812 1.28125 -18.59375 C 2.0625 -19.550781 3.253906 -20.0625 4.859375 -20.125 C 6.160156 -20.164062 7.179688 -19.9375 7.921875 -19.4375 C 8.660156 -18.945312 9.1875 -18.207031 9.5 -17.21875 C 9.8125 -16.238281 9.992188 -14.96875 10.046875 -13.40625 L 6.171875 -13.265625 L 6.109375 -15.03125 C 6.097656 -15.507812 6.019531 -15.875 5.875 -16.125 C 5.738281 -16.382812 5.503906 -16.507812 5.171875 -16.5 C 4.421875 -16.46875 4.0625 -15.957031 4.09375 -14.96875 L 4.4375 -5.421875 C 4.457031 -4.828125 4.546875 -4.378906 4.703125 -4.078125 C 4.867188 -3.785156 5.144531 -3.644531 5.53125 -3.65625 C 5.914062 -3.664062 6.175781 -3.828125 6.3125 -4.140625 C 6.457031 -4.453125 6.519531 -4.90625 6.5 -5.5 L 6.40625 -8.328125 L 5.359375 -8.296875 L 5.234375 -11.703125 L 10.0625 -11.875 L 10.46875 -0.375 L 8.875 -0.3125 L 8.15625 -1.953125 C 7.488281 -0.691406 6.414062 -0.0351562 4.9375 0.015625 Z M 4.9375 0.015625 "/></g></g></g></g></g><path stroke-linecap="butt" transform="matrix(0.749062, -0.0374997, 0.0374997, 0.749062, 145.728861, 65.273134)" fill="none" stroke-linejoin="miter" d="M 23.521182 100.416642 C 102.993031 7.862981 172.82533 7.859777 233.022761 100.417693 " stroke="#000000" stroke-width="62" stroke-opacity="1" stroke-miterlimit="4"/><path stroke-linecap="butt" transform="matrix(0.723616, -0.197181, 0.197181, 0.723616, 16.705539, 245.260532)" fill="none" stroke-linejoin="miter" d="M 9.793976 69.516822 C 4.007048 -11.171261 29.864273 -11.170027 87.365649 69.520525 " stroke="#5a5a5a" stroke-width="18" stroke-opacity="1" stroke-miterlimit="4"/><g clip-path="url(#e79271496a)"><g clip-path="url(#3e056a632b)"><path fill="#ffffff" d="M 160.160156 207.753906 L 160.160156 218.171875 L 142.335938 218.171875 L 142.335938 207.753906 Z M 160.160156 207.753906 " fill-opacity="1" fill-rule="nonzero"/></g></g><g clip-path="url(#8411e46fc0)"><g clip-path="url(#1146439c46)"><path fill="#ffffff" d="M 160.164062 214 L 160.164062 222.332031 L 151.277344 222.332031 L 151.277344 214 Z M 160.164062 214 " fill-opacity="1" fill-rule="nonzero"/></g></g><g clip-path="url(#76ced158f8)"><g clip-path="url(#633e5c5eff)"><path fill="#ffffff" d="M 157.871094 203.582031 L 157.871094 211.917969 L 148.984375 211.917969 L 148.984375 203.582031 Z M 157.871094 203.582031 " fill-opacity="1" fill-rule="nonzero"/></g></g><g clip-path="url(#5f5798a137)"><g clip-path="url(#d529189407)"><path fill="#ffffff" d="M 68.980469 217.167969 L 68.980469 225.5 L 60.09375 225.5 L 60.09375 217.167969 Z M 68.980469 217.167969 " fill-opacity="1" fill-rule="nonzero"/></g></g><g clip-path="url(#f61a498ccb)"><g clip-path="url(#2978dc9c2c)"><path fill="#ffffff" d="M 71.496094 211.089844 L 71.496094 221.078125 L 53.550781 221.078125 L 53.550781 211.089844 Z M 71.496094 211.089844 " fill-opacity="1" fill-rule="nonzero"/></g></g><g clip-path="url(#fe97035011)"><g clip-path="url(#7aa38d579e)"><path fill="#ffffff" d="M 68.980469 207.75 L 68.980469 216.082031 L 60.09375 216.082031 L 60.09375 207.75 Z M 68.980469 207.75 " fill-opacity="1" fill-rule="nonzero"/></g></g><path stroke-linecap="butt" transform="matrix(0.716701, 0.220998, -0.220998, 0.716701, 126.497077, 263.824377)" fill="none" stroke-linejoin="miter" d="M 46.033586 27.401964 C -25.819022 2.865149 6.882718 2.864505 144.143784 27.398498 " stroke="#5a5a5a" stroke-width="18" stroke-opacity="1" stroke-miterlimit="4"/><path stroke-linecap="butt" transform="matrix(-0.707843, -0.247908, 0.247908, -0.707843, 189.624191, 340.285641)" fill="none" stroke-linejoin="miter" d="M 68.994079 42.346185 C -36.276372 -2.117014 -3.009294 -2.113005 168.801701 42.344938 " stroke="#5a5a5a" stroke-width="18" stroke-opacity="1" stroke-miterlimit="4"/><path stroke-linecap="butt" transform="matrix(-0.105595, 0.742529, -0.742529, -0.105595, 80.543085, 28.433439)" fill="none" stroke-linejoin="miter" d="M 21.9516 21.88795 C 67.307255 67.371891 112.660065 67.371909 158.015188 21.887273 " stroke="#000000" stroke-width="62" stroke-opacity="1" stroke-miterlimit="4"/><path stroke-linecap="butt" transform="matrix(-0.748334, 0.0499676, -0.0499676, -0.748334, 164.727094, 58.927609)" fill="none" stroke-linejoin="miter" d="M 10.075108 29.316939 C 68.114672 49.264515 110.735693 49.260316 137.942672 29.315081 " stroke="#000000" stroke-width="62" stroke-opacity="1" stroke-miterlimit="4"/><path stroke-linecap="butt" transform="matrix(-0.749435, 0.0291009, -0.0291009, -0.749435, 186.845779, 196.094474)" fill="none" stroke-linejoin="miter" d="M 21.874066 77.835406 C 84.583903 15.388266 138.218132 15.386006 182.776551 77.833833 " stroke="#000000" stroke-width="62" stroke-opacity="1" stroke-miterlimit="4"/><path stroke-linecap="butt" transform="matrix(0.742173, -0.108069, 0.108069, 0.742173, 150.5143, 81.902104)" fill="none" stroke-linejoin="miter" d="M 9.034585 68.669803 C 103.850726 -2.888641 169.741539 -2.88907 206.707024 68.668514 " stroke="#ffffff" stroke-width="30" stroke-opacity="1" stroke-miterlimit="4"/><g clip-path="url(#d3eca1c864)"><g clip-path="url(#4db6f7fab8)"><path fill="#ffffff" d="M 299.730469 106.851562 L 348.359375 106.851562 L 348.359375 157.003906 L 299.730469 157.003906 Z M 299.730469 106.851562 " fill-opacity="1" fill-rule="nonzero"/></g></g><g clip-path="url(#35a230c8ea)"><g clip-path="url(#e3773fa5d2)"><path stroke-linecap="butt" transform="matrix(0.75, 0, 0, 0.75, 299.728667, 106.857576)" fill="none" stroke-linejoin="miter" d="M 32.413863 0.00239842 C 14.51282 0.00239842 0.00240204 14.945108 0.00240204 33.377401 C 0.00240204 51.809693 14.51282 66.752403 32.413863 66.752403 C 50.314905 66.752403 64.830531 51.809693 64.830531 33.377401 C 64.830531 14.945108 50.314905 0.00239842 32.413863 0.00239842 Z M 32.413863 0.00239842 " stroke="#000000" stroke-width="18" stroke-opacity="1" stroke-miterlimit="4"/></g></g><g clip-path="url(#eeeb4cbf60)"><g clip-path="url(#94a31fc00b)"><path fill="#ffb400" d="M 309.886719 117.988281 L 338.230469 117.988281 L 338.230469 145.792969 L 309.886719 145.792969 Z M 309.886719 117.988281 " fill-opacity="1" fill-rule="nonzero"/></g></g><g clip-path="url(#e5936f81e2)"><g clip-path="url(#823ec727d2)"><path stroke-linecap="butt" transform="matrix(0.75, 0, 0, 0.75, 309.886448, 117.989743)" fill="none" stroke-linejoin="miter" d="M 18.875362 -0.00194854 C 8.448278 -0.00194854 0.000360799 8.294927 0.000360799 18.529303 C 0.000360799 28.763678 8.448278 37.060554 18.875362 37.060554 C 29.297238 37.060554 37.750363 28.763678 37.750363 18.529303 C 37.750363 8.294927 29.297238 -0.00194854 18.875362 -0.00194854 Z M 18.875362 -0.00194854 " stroke="#000000" stroke-width="20" stroke-opacity="1" stroke-miterlimit="4"/></g></g><path stroke-linecap="butt" transform="matrix(-0.263608, 0.702147, -0.702147, -0.263608, 85.05279, 25.031829)" fill="none" stroke-linejoin="miter" d="M 10.707362 10.503172 C 57.945591 58.648955 105.183891 58.649979 152.417386 10.508075 " stroke="#ffffff" stroke-width="30" stroke-opacity="1" stroke-miterlimit="4"/><path stroke-linecap="butt" transform="matrix(-0.749641, -0.0232029, 0.0232029, -0.749641, 157.228384, 42.888952)" fill="none" stroke-linejoin="miter" d="M 6.486537 13.527529 C 41.284897 30.208952 76.08806 30.210366 110.89066 13.526726 " stroke="#ffffff" stroke-width="30" stroke-opacity="1" stroke-miterlimit="4"/><g clip-path="url(#b064407a8b)"><g clip-path="url(#db77bcea97)"><g clip-path="url(#37382d2b92)"><path fill="#000000" d="M 153.433594 164.8125 L 129.128906 187.496094 L 106.179688 162.90625 L 130.484375 140.222656 Z M 153.433594 164.8125 " fill-opacity="1" fill-rule="nonzero"/></g></g></g><path stroke-linecap="butt" transform="matrix(0.74998, 0.00545068, -0.00545068, 0.74998, 27.923638, 121.087778)" fill="none" stroke-linejoin="miter" d="M 12.838457 9.581579 C 61.3714 89.902863 118.977114 89.906084 185.660734 9.580788 " stroke="#ffffff" stroke-width="30" stroke-opacity="1" stroke-miterlimit="4"/><g clip-path="url(#1dcf8fc3b9)"><g clip-path="url(#f864aca249)"><g clip-path="url(#c6f94a7b92)"><path fill="#000000" d="M 205.855469 18.707031 L 189.707031 77.554688 L 142.332031 64.554688 L 158.484375 5.707031 Z M 205.855469 18.707031 " fill-opacity="1" fill-rule="nonzero"/></g></g></g><g clip-path="url(#350c7e1b58)"><g clip-path="url(#f8965a2746)"><g clip-path="url(#b27ca190ae)"><path fill="#ffffff" d="M 183.828125 21.296875 L 173.144531 59.566406 L 142.335938 50.964844 L 153.023438 12.695312 Z M 183.828125 21.296875 " fill-opacity="1" fill-rule="nonzero"/></g></g></g></svg>